<svg width="26" height="24" viewBox="0 0 26 24" fill="none" xmlns="http://www.w3.org/2000/svg">
<path d="M7.66667 7.66667L11.6667 11.6667L7.66667 15.6667M14.3333 15.6667H18.3333M3.66667 22.3333H22.3333C23.0406 22.3333 23.7189 22.0524 24.219 21.5523C24.719 21.0522 25 20.3739 25 19.6667V3.66667C25 2.95942 24.719 2.28115 24.219 1.78105C23.7189 1.28095 23.0406 1 22.3333 1H3.66667C2.95942 1 2.28115 1.28095 1.78105 1.78105C1.28095 2.28115 1 2.95942 1 3.66667V19.6667C1 20.3739 1.28095 21.0522 1.78105 21.5523C2.28115 22.0524 2.95942 22.3333 3.66667 22.3333Z" stroke="white" stroke-width="2" stroke-linecap="round" stroke-linejoin="round"/>
</svg>
